<?xml version="1.0" standalone="no"?>
<!DOCTYPE svg PUBLIC "-//W3C//DTD SVG 20010904//EN"
 "http://www.w3.org/TR/2001/REC-SVG-20010904/DTD/svg10.dtd">
<svg version="1.0" xmlns="http://www.w3.org/2000/svg"
 width="1024.000000pt" height="1024.000000pt" viewBox="0 0 1024.000000 1024.000000"
 preserveAspectRatio="xMidYMid meet">
<metadata>
Created by potrace 1.16, written by Peter Selinger 2001-2019
</metadata>
<g transform="translate(0.000000,1024.000000) scale(0.100000,-0.100000)"
fill="#000000" stroke="none">
<path d="M2880 9294 c-14 -2 -65 -9 -115 -15 -49 -6 -143 -24 -207 -41 -756
-189 -1354 -780 -1551 -1533 -67 -254 -62 -60 -62 -2585 0 -2148 1 -2291 18
-2385 82 -460 283 -851 602 -1170 318 -318 711 -520 1170 -602 94 -17 237 -18
2385 -18 2148 0 2291 1 2385 18 459 82 852 284 1170 602 318 318 520 711 602
1170 17 94 18 237 18 2385 0 2525 5 2331 -62 2585 -195 744 -784 1333 -1528
1528 -253 66 -55 61 -2545 63 -1240 1 -2266 0 -2280 -2z m2391 -3018 c135 -42
229 -127 229 -207 0 -11 -16 -37 -35 -56 -32 -32 -40 -35 -76 -30 -27 4 -52
16 -73 35 -89 86 -259 110 -322 47 -36 -36 -34 -105 5 -137 33 -29 45 -33 216
-87 243 -77 319 -166 302 -352 -7 -79 -43 -139 -118 -194 -85 -62 -149 -80
-284 -79 -90 1 -124 6 -189 28 -168 57 -266 169 -222 253 19 38 77 67 116 58
15 -3 57 -29 92 -57 74 -59 112 -77 189 -88 125 -18 199 21 199 105 0 63 -32
86 -193 136 -235 75 -297 112 -342 204 -31 62 -38 165 -16 229 18 53 94 132
155 163 103 52 254 64 367 29z"/>
</g>
</svg>
