<?xml version="1.0" standalone="no"?>
<!DOCTYPE svg PUBLIC "-//W3C//DTD SVG 20010904//EN"
 "http://www.w3.org/TR/2001/REC-SVG-20010904/DTD/svg10.dtd">
<svg version="1.0" xmlns="http://www.w3.org/2000/svg"
 width="1024.000000pt" height="1024.000000pt" viewBox="0 0 1024.000000 1024.000000"
 preserveAspectRatio="xMidYMid meet">
<metadata>
Created by potrace 1.16, written by Peter Selinger 2001-2019
</metadata>
<g transform="translate(0.000000,1024.000000) scale(0.100000,-0.100000)"
fill="#000000" stroke="none">
<path d="M2670 9773 c-325 -33 -584 -105 -855 -237 -488 -238 -874 -625 -1110
-1111 -114 -234 -181 -449 -222 -710 -17 -103 -18 -275 -18 -2595 0 -2754 -5
-2543 64 -2825 81 -329 257 -685 465 -940 84 -103 258 -276 361 -359 271 -219
605 -385 940 -467 282 -69 71 -64 2825 -64 2320 0 2492 1 2595 18 262 41 477
108 710 222 642 312 1117 899 1286 1590 69 282 64 71 64 2825 0 2754 5 2543
-64 2825 -82 335 -248 669 -467 940 -88 109 -261 281 -369 368 -267 213 -613
383 -941 461 -272 64 -52 59 -2764 61 -1356 1 -2481 0 -2500 -2z m2586 -3378
c136 -32 252 -115 274 -196 20 -73 -28 -129 -110 -129 -41 0 -53 5 -93 40 -67
59 -124 81 -212 82 -95 1 -146 -22 -159 -74 -12 -46 -1 -84 30 -113 29 -27 52
-36 242 -96 158 -49 238 -96 282 -166 41 -64 53 -115 48 -199 -8 -115 -56
-189 -170 -257 -82 -49 -187 -71 -302 -64 -158 11 -271 54 -358 135 -89 83
-101 138 -44 200 31 33 40 37 84 37 44 0 55 -5 98 -42 115 -100 230 -138 347
-113 77 16 107 45 107 106 0 76 -34 100 -232 164 -90 29 -185 63 -211 77 -69
34 -122 87 -153 149 -23 48 -26 62 -22 141 4 103 22 148 84 210 106 106 296
149 470 108z"/>
</g>
</svg>
