<?xml version="1.0" encoding="UTF-8" standalone="no"?><!DOCTYPE svg PUBLIC "-//W3C//DTD SVG 1.1//EN" "http://www.w3.org/Graphics/SVG/1.1/DTD/svg11.dtd"><svg width="100%" height="100%" viewBox="0 0 4342 4346" version="1.1" xmlns="http://www.w3.org/2000/svg" xmlns:xlink="http://www.w3.org/1999/xlink" xml:space="preserve" xmlns:serif="http://www.serif.com/" style="fill-rule:evenodd;clip-rule:evenodd;stroke-linecap:round;stroke-linejoin:round;stroke-miterlimit:1.5;"><g id="icon"><path d="M4282.82,1117.06l0,2112.5c0,582.96 -473.29,1056.25 -1056.25,1056.25l-2112.5,-0c-582.96,-0 -1056.25,-473.29 -1056.25,-1056.25l0,-2112.5c0,-582.961 473.29,-1056.25 1056.25,-1056.25l2112.5,-0c582.96,-0 1056.25,473.289 1056.25,1056.25Z" style="fill:#293241;stroke:#3d5a80;stroke-width:115.53px;"/><g id="logo"><path d="M2703.09,2051.17c-99.251,25.413 -947.823,133.337 -1013.07,10.049c-13.159,-24.864 -30.587,-29.069 -62.944,-27.861c-121.825,4.548 -215.825,39.65 -267.1,143.782c-22.907,46.519 -73.702,63.779 -133.21,61.419c-56.683,-2.248 -79.525,-35.297 -96.881,-74.124c-33.991,-76.048 -98.659,-117.257 -190.321,-130.536c-30.823,-4.465 -155.393,21.599 -195.957,25.507c-12.621,-9.472 -10.701,-20.077 -10.345,-30.52c7.279,-213.515 231.291,-410.511 483.657,-413.534c84.004,-1.007 114.004,-23.712 137.985,-91.771c117.843,-334.453 494.398,-539.993 866.613,-514.05c401.489,27.983 672.216,213.914 787.953,554.78c12.575,37.036 34.083,51.868 77.701,48.8c77.052,-5.42 149.808,11.573 219.751,37.725c189.017,70.673 319.696,246.825 299.328,403.526c-7.002,-0.408 -14.392,0.222 -21.067,-1.381c-204.931,-49.208 -272.624,-24.724 -375.438,138.326c-19.734,31.295 -47.813,45.128 -88.011,46.583c-65.16,2.356 -106.495,-27.337 -131.482,-74.67c-33.604,-63.657 -187.907,-137.464 -287.158,-112.05Z" style="fill:#ee6c4d;"/><path d="M710.51,2663.11c-105.893,-100.236 -168.835,-241.805 -164.279,-396.422c0.215,-7.302 -1.618,-15.441 0.962,-21.783c57.679,-141.82 43.34,-295.846 74.54,-441.423c16.825,-78.505 47.266,-150.163 88.777,-213.028c101.02,-152.992 267.6,-253.913 463.034,-274.735c43.298,-4.612 57.616,-28.124 70.278,-61.363c100.389,-263.541 269.004,-448.627 501.126,-552.11c79.168,-35.294 165.724,-61.095 259.479,-77.28c208.752,-36.035 414.834,-6.385 593.281,77.28c218.48,102.435 395.535,285.838 485.343,528.789c21.264,57.525 46.534,80.077 110.764,87.983c175.841,21.644 329.349,125.276 426.498,269.759c61.248,91.089 100.095,198.414 108.016,311.668c6.351,90.802 14.693,179.42 45.011,269.013c59,174.348 -7.078,366.021 -153.027,496.347c-15.537,13.874 -31.98,27.053 -49.274,39.442c-15.803,11.322 -32.766,21.023 -54.005,34.024c-101.859,52.791 -205.266,75.638 -314.279,75.51c-263.028,-0.308 -871.206,1.69 -871.206,1.69c-0,-0 -0.413,-352.271 -3.562,-486.146c-1.163,-49.475 16.902,-73.114 61.84,-91.937c178.635,-74.824 209.096,-276.039 308.347,-305.376c99.251,-29.338 253.554,55.866 287.158,129.351c24.988,54.64 66.323,88.918 131.482,86.198c40.198,-1.679 68.277,-17.648 88.011,-53.775c102.815,-188.224 170.508,-216.489 375.439,-159.683c6.675,1.85 14.064,1.123 21.066,1.594c20.369,-180.896 -110.311,-384.244 -299.328,-465.829c-69.943,-30.19 -142.699,-49.807 -219.751,-43.55c-43.617,3.542 -65.125,-13.579 -77.7,-56.334c-115.737,-393.495 -386.465,-608.132 -787.953,-640.436c-372.215,-29.949 -748.77,207.325 -866.614,593.417c-23.981,78.567 -53.98,104.778 -137.985,105.94c-252.366,3.49 -476.377,230.901 -483.657,477.383c-0.355,12.055 -2.276,24.298 10.346,35.232c40.564,-4.511 165.133,-34.6 195.956,-29.445c91.662,15.329 156.33,62.901 190.322,150.69c17.355,44.822 40.197,82.974 96.881,85.569c59.508,2.724 110.303,-17.201 133.209,-70.902c51.275,-120.21 145.275,-160.732 267.1,-165.982c32.357,-1.394 49.785,3.459 62.945,32.163c65.25,142.323 158.445,256.349 313.822,306.913c27.882,9.074 32.987,32.611 32.941,58.721c-0.268,148.56 -6.377,506.224 -6.377,506.224c0,-0 -650.787,3.972 -947.699,-3.897c-144.895,-3.84 -273.081,-60.298 -367.278,-149.464Z" style="fill:#3d5a80;"/><path d="M2058,3023.78l-0,538.786l-310.334,-0l0.354,-152.886l204.258,0l-2.221,-215.514l-202.818,-0l0.607,-170.386l310.154,0Z" style="fill:#ee6c4d;fill-rule:nonzero;"/><path d="M2010.5,2322.13c-242.992,-50.025 -370.395,-260.047 -370.395,-506.288c-0,-283.619 241.834,-513.881 539.706,-513.881c297.871,0 539.706,230.262 539.706,513.881c-0,246.241 -117.922,456.263 -360.913,506.288l12.885,494.187l-374.388,-0l13.399,-494.187Z" style="fill:#3d5a80;"/><path d="M2088.1,2267.05c-194.755,-42.109 -340.861,-215.532 -340.861,-422.81c-0,-238.742 193.827,-432.569 432.569,-432.569c238.741,-0 432.569,193.827 432.569,432.569c-0,207.278 -146.107,380.701 -340.862,422.81l0,1369.58c0,0 -61.138,100.101 -91.707,100.101c-30.57,0 -91.708,-100.101 -91.708,-100.101l0,-1369.58Z" style="fill:#ee6c4d;"/><clipPath id="_clip1"><path d="M2088.1,2267.05c-194.755,-42.109 -340.861,-215.532 -340.861,-422.81c-0,-238.742 193.827,-432.569 432.569,-432.569c238.741,-0 432.569,193.827 432.569,432.569c-0,207.278 -146.107,380.701 -340.862,422.81l0,1369.58c0,0 -61.138,100.101 -91.707,100.101c-30.57,0 -91.708,-100.101 -91.708,-100.101l0,-1369.58Z"/></clipPath><g clip-path="url(#_clip1)"><path d="M1960.65,2032.28c-6.705,-9.387 -9.722,-21.456 -9.052,-36.207c0.671,-14.75 9.387,-27.49 26.149,-38.218c10.728,-6.704 22.127,-9.554 34.195,-8.548c12.069,1.005 23.803,7.207 35.201,18.606c19.444,19.444 39.894,34.53 61.35,45.258c21.455,10.728 48.275,16.091 80.458,16.091c10.058,-0.67 21.121,-2.179 33.19,-4.525c12.068,-2.347 22.629,-7.711 31.68,-16.092c9.052,-8.381 13.578,-21.288 13.578,-38.721c-0,-14.751 -5.029,-26.484 -15.086,-35.2c-10.058,-8.717 -23.3,-16.092 -39.727,-22.127c-16.427,-6.034 -34.698,-11.733 -54.812,-17.097c-20.785,-6.034 -42.074,-12.739 -63.864,-20.115c-21.791,-7.375 -41.738,-16.93 -59.841,-28.663c-18.104,-11.734 -32.854,-27.322 -44.253,-46.767c-11.398,-19.444 -17.097,-43.917 -17.097,-73.418c-0,-33.525 9.387,-62.02 28.16,-85.487c18.774,-23.468 43.079,-41.571 72.916,-54.31c29.837,-12.739 61.182,-19.109 94.036,-19.109c20.785,0 42.576,2.514 65.373,7.543c22.796,5.029 44.587,13.075 65.372,24.138c20.785,11.063 38.218,25.646 52.298,43.749c7.376,10.057 11.734,22.126 13.075,36.206c1.341,14.081 -5.029,26.82 -19.109,38.218c-10.057,8.046 -21.791,11.566 -35.201,10.56c-13.409,-1.005 -24.473,-5.531 -33.189,-13.577c-11.398,-14.751 -26.652,-26.484 -45.761,-35.201c-19.109,-8.716 -41.067,-13.074 -65.875,-13.074c-10.058,-0 -20.953,1.173 -32.687,3.52c-11.733,2.347 -21.958,7.375 -30.674,15.086c-8.717,7.711 -13.075,19.947 -13.075,36.709c0,15.421 5.029,27.658 15.086,36.709c10.057,9.052 23.635,16.427 40.732,22.127c17.098,5.699 35.369,11.23 54.813,16.594c20.114,5.364 40.564,11.734 61.349,19.109c20.786,7.375 39.894,17.098 57.327,29.166c17.433,12.069 31.513,27.658 42.241,46.767c10.728,19.109 16.092,43.414 16.092,72.916c-0,34.194 -10.058,63.361 -30.172,87.498c-20.115,24.138 -45.258,42.409 -75.43,54.813c-30.172,12.404 -61.015,18.606 -92.528,18.606c-39.559,-0 -79.117,-6.873 -118.676,-20.618c-39.559,-13.745 -72.413,-38.05 -98.562,-72.915Z" style="fill:#fff;fill-rule:nonzero;"/></g></g></g></svg>